<?xml version="1.0" encoding="UTF-8"?><svg id="a" xmlns="http://www.w3.org/2000/svg" xmlns:xlink="http://www.w3.org/1999/xlink" viewBox="0 0 128 128"><defs><style>.q{opacity:.5;}.q,.r,.s{fill:none;stroke:#fff;stroke-linejoin:round;}.t{fill:url(#c);}.t,.u,.v,.w,.x,.y,.z,.aa,.ab,.ac,.ad,.ae,.af,.ag,.ah{stroke-width:0px;}.u{fill:url(#e);}.v{fill:url(#g);}.w{fill:url(#i);}.x{fill:url(#l);}.r{stroke-width:3px;}.y{fill:url(#n);}.z{fill:url(#h);}.aa{fill:url(#j);}.ab{fill:url(#d);}.ac{fill:#9f6;}.ad{fill:url(#f);}.ae{fill:url(#m);}.s{opacity:.75;stroke-width:2px;}.af{fill:url(#k);}.ag{fill:url(#p);}.ah{fill:url(#o);}</style><linearGradient id="c" x1="21.62" y1="71.58" x2="37.61" y2="71.58" gradientUnits="userSpaceOnUse"><stop offset="0" stop-color="#f8a01d"/><stop offset=".71" stop-color="#f26e23"/><stop offset="1" stop-color="#ef5826"/></linearGradient><linearGradient id="d" x1="13.9" y1="74.38" x2="28.43" y2="74.38" xlink:href="#c"/><linearGradient id="e" x1="42.87" y1="68.61" x2="60.3" y2="68.61" xlink:href="#c"/><linearGradient id="f" x1="18.51" y1="75.04" x2="33.04" y2="75.04" xlink:href="#c"/><linearGradient id="g" x1="-63.88" y1="64" x2="161.32" y2="64" xlink:href="#c"/><linearGradient id="h" x1="26.24" y1="69.6" x2="42.22" y2="69.6" xlink:href="#c"/><linearGradient id="i" x1="38.25" y1="68.45" x2="55.69" y2="68.45" xlink:href="#c"/><linearGradient id="j" x1="4.55" y1="74.71" x2="14.72" y2="74.71" xlink:href="#c"/><linearGradient id="k" x1="51.77" y1="65.32" x2="69.2" y2="65.32" xlink:href="#c"/><linearGradient id="l" x1="31.36" y1="68.45" x2="45.89" y2="68.45" xlink:href="#c"/><linearGradient id="m" x1="47.15" y1="66.47" x2="64.59" y2="66.47" xlink:href="#c"/><linearGradient id="n" x1="35.65" y1="68.12" x2="50.18" y2="68.12" xlink:href="#c"/><linearGradient id="o" x1="10.78" y1="74.38" x2="23.86" y2="74.38" xlink:href="#c"/><linearGradient id="p" x1="6.5" y1="74.71" x2="19.57" y2="74.71" xlink:href="#c"/></defs><path class="ac" d="M92.26,61.27L40.2,18.7c-2.3-1.88-5.75-.24-5.75,2.73v85.14c0,2.97,3.45,4.61,5.75,2.73l52.06-42.57c1.72-1.41,1.72-4.04,0-5.45Z"/><g id="b"><path class="t" d="M32.85,56.25c-.66,0-.99.33-.99.66l-.99,17.8.99,11.54c0,.33.33.66.66.66.66,0,.99-.33.99-.66l.99-11.54-.99-17.8c0-.33-.33-.66-.66-.66Z"/><path class="ab" d="M23.95,86.58c.33,0,.66-.33.66-.66l.99-11.21-.99-11.87c0-.33-.33-.66-.66-.66s-.33.33-.66.66l-.99,11.87.99,11.21c0,.33.33.66.66.66Z"/><path class="u" d="M54.94,86.91c.66,0,1.32-.66,1.32-1.32l.66-10.88-.66-23.07c0-.66-.66-1.32-1.32-1.32-.99.33-1.32.66-1.32,1.65l-.66,22.74.66,10.88c0,.66.66,1.32,1.32,1.32Z"/><path class="ad" d="M28.24,86.91c.33,0,.66-.33.66-.66l1.32-11.54-.99-10.88c0-.33-.33-.66-.66-.66-.66,0-.99.33-.99.66l-.66,10.88.66,11.54c0,.33.33.66.66.66Z"/><path class="v" d="M117.56,74.05c0-7.25-5.93-13.18-13.18-13.18-1.65,0-3.63.33-4.94.99-.99-11.87-10.88-21.09-23.07-21.09h-1.65c-2.31,0-4.61.66-6.92,1.32-.99.33-1.32.66-1.32,1.65v41.86c0,.66.66,1.32,1.32,1.65h36.59c7.25,0,13.18-5.93,13.18-13.18Z"/><path class="z" d="M38.13,86.25l.99-11.54-.99-21.75c0-.66-.33-.99-.99-.99s-.99.33-.99.99l-.66,21.75.66,11.54c0,.66.33.99.99.99.33,0,.99-.33.99-.99Z"/><path class="w" d="M51.64,85.92l.66-11.21-.66-23.73c0-.66-.66-1.32-1.32-1.32s-1.32.66-1.32,1.32l-.66,23.73.66,11.21c0,.66.66,1.32,1.32,1.32s1.32-.66,1.32-1.32Z"/><path class="aa" d="M11.43,80.97c.33,0,.33-.33.33-.33l.99-5.93-.99-5.93c0-.33-.33-.33-.33-.33,0,0-.33,0-.33.33l-.66,5.93.66,5.93c0,.33.33.33.33.33Z"/><path class="af" d="M63.84,43.73h-.33c-.66,0-.99.66-.99,1.32l-.66,29.66.66,10.88c0,.66.66,1.32,1.32,1.32s1.32-.66,1.32-1.32l.66-10.88-.66-29.66c0-.66-.66-1.32-1.32-1.32Z"/><path class="x" d="M41.42,86.91c.66,0,.99-.33.99-.99l.66-11.21-.66-23.73c0-.66-.33-.99-.99-.99s-.99.66-.99.99l-.66,23.73.66,11.21c0,.66.33.99.99.99Z"/><path class="ae" d="M59.22,86.91c.66,0,1.32-.66,1.32-1.32l.66-10.88-.66-27.36c0-.66-.66-1.32-1.32-1.32s-1.32.66-1.32,1.32l-.66,27.36.66,10.88c0,.66.66,1.32,1.32,1.32Z"/><path class="y" d="M45.71,49.33c-.33,0-.99.33-.99.99l-.66,24.39.66,11.21c0,.66.33.99.99.99s.99-.33.99-.99l.66-11.21-.66-24.39c0-.66-.66-.99-.99-.99Z"/><path class="ah" d="M20,86.25s.33-.33.33-.66l.99-10.88-.99-11.54c0-.33-.33-.66-.66-.66,0,.33-.33.33-.33.66l-.99,11.54.99,10.88c0,.33.33.66.66.66Z"/><path class="ag" d="M15.38,84.6c.33,0,.33-.33.33-.33l1.32-9.56-1.32-9.56c0-.33-.33-.33-.33-.33l-.33.33-.99,9.56.99,9.56c0,.33.33.33.33.33Z"/></g><polyline class="q" points="73 67.42 77.63 72.05 73.1 76.58"/><polyline class="s" points="76.67 63.79 84.98 72.09 76.86 80.21"/><polyline class="r" points="84.47 61.04 95.55 72.12 84.71 82.96"/></svg>